<mxfile host="Electron" agent="Mozilla/5.0 (Windows NT 10.0; Win64; x64) AppleWebKit/537.36 (KHTML, like Gecko) draw.io/25.0.2 Chrome/128.0.6613.186 Electron/32.2.5 Safari/537.36" version="25.0.2">
  <diagram name="Страница — 1" id="QB_Xq662SgcWTGFvwtMf">
    <mxGraphModel dx="1644" dy="957" grid="1" gridSize="10" guides="1" tooltips="1" connect="1" arrows="1" fold="1" page="1" pageScale="1" pageWidth="827" pageHeight="1169" math="0" shadow="0">
      <root>
        <mxCell id="0" />
        <mxCell id="1" parent="0" />
        <mxCell id="o_xj5rLthn3H0FLDRn8l-1" value="&amp;lt;&amp;lt;component&amp;gt;&amp;gt;&lt;br&gt;&lt;b&gt;Profile System&lt;/b&gt;" style="html=1;dropTarget=0;whiteSpace=wrap;verticalAlign=top;" vertex="1" parent="1">
          <mxGeometry x="405" y="340" width="1565" height="900" as="geometry" />
        </mxCell>
        <mxCell id="o_xj5rLthn3H0FLDRn8l-2" value="" style="shape=module;jettyWidth=8;jettyHeight=4;" vertex="1" parent="o_xj5rLthn3H0FLDRn8l-1">
          <mxGeometry x="1" width="20" height="20" relative="1" as="geometry">
            <mxPoint x="-27" y="7" as="offset" />
          </mxGeometry>
        </mxCell>
        <mxCell id="o_xj5rLthn3H0FLDRn8l-17" value="&amp;lt;&amp;lt;component&amp;gt;&amp;gt;&lt;br&gt;&lt;b&gt;profiles&lt;/b&gt;" style="html=1;dropTarget=0;whiteSpace=wrap;verticalAlign=top;" vertex="1" parent="1">
          <mxGeometry x="1350" y="460" width="600" height="650" as="geometry" />
        </mxCell>
        <mxCell id="o_xj5rLthn3H0FLDRn8l-18" value="" style="shape=module;jettyWidth=8;jettyHeight=4;" vertex="1" parent="o_xj5rLthn3H0FLDRn8l-17">
          <mxGeometry x="1" width="20" height="20" relative="1" as="geometry">
            <mxPoint x="-27" y="7" as="offset" />
          </mxGeometry>
        </mxCell>
        <mxCell id="o_xj5rLthn3H0FLDRn8l-19" value="&amp;lt;&amp;lt;component&amp;gt;&amp;gt;&lt;br&gt;&lt;b&gt;App.vue&lt;/b&gt;" style="html=1;dropTarget=0;whiteSpace=wrap;verticalAlign=top;" vertex="1" parent="1">
          <mxGeometry x="510" y="400" width="280" height="620" as="geometry" />
        </mxCell>
        <mxCell id="o_xj5rLthn3H0FLDRn8l-20" value="" style="shape=module;jettyWidth=8;jettyHeight=4;" vertex="1" parent="o_xj5rLthn3H0FLDRn8l-19">
          <mxGeometry x="1" width="20" height="20" relative="1" as="geometry">
            <mxPoint x="-27" y="7" as="offset" />
          </mxGeometry>
        </mxCell>
        <mxCell id="o_xj5rLthn3H0FLDRn8l-5" value="&amp;lt;&amp;lt;component&amp;gt;&amp;gt;&lt;br&gt;&lt;b&gt;SignUpView&lt;/b&gt;" style="html=1;dropTarget=0;whiteSpace=wrap;" vertex="1" parent="1">
          <mxGeometry x="560" y="585" width="180" height="90" as="geometry" />
        </mxCell>
        <mxCell id="o_xj5rLthn3H0FLDRn8l-6" value="" style="shape=module;jettyWidth=8;jettyHeight=4;" vertex="1" parent="o_xj5rLthn3H0FLDRn8l-5">
          <mxGeometry x="1" width="20" height="20" relative="1" as="geometry">
            <mxPoint x="-27" y="7" as="offset" />
          </mxGeometry>
        </mxCell>
        <mxCell id="o_xj5rLthn3H0FLDRn8l-7" value="&amp;lt;&amp;lt;component&amp;gt;&amp;gt;&lt;br&gt;&lt;b&gt;LoginView&lt;/b&gt;" style="html=1;dropTarget=0;whiteSpace=wrap;" vertex="1" parent="1">
          <mxGeometry x="560" y="470" width="180" height="90" as="geometry" />
        </mxCell>
        <mxCell id="o_xj5rLthn3H0FLDRn8l-8" value="" style="shape=module;jettyWidth=8;jettyHeight=4;" vertex="1" parent="o_xj5rLthn3H0FLDRn8l-7">
          <mxGeometry x="1" width="20" height="20" relative="1" as="geometry">
            <mxPoint x="-27" y="7" as="offset" />
          </mxGeometry>
        </mxCell>
        <mxCell id="o_xj5rLthn3H0FLDRn8l-13" value="&amp;lt;&amp;lt;component&amp;gt;&amp;gt;&lt;br&gt;&lt;b&gt;ProfileView&lt;/b&gt;" style="html=1;dropTarget=0;whiteSpace=wrap;" vertex="1" parent="1">
          <mxGeometry x="560" y="700" width="180" height="90" as="geometry" />
        </mxCell>
        <mxCell id="o_xj5rLthn3H0FLDRn8l-14" value="" style="shape=module;jettyWidth=8;jettyHeight=4;" vertex="1" parent="o_xj5rLthn3H0FLDRn8l-13">
          <mxGeometry x="1" width="20" height="20" relative="1" as="geometry">
            <mxPoint x="-27" y="7" as="offset" />
          </mxGeometry>
        </mxCell>
        <mxCell id="o_xj5rLthn3H0FLDRn8l-15" value="&amp;lt;&amp;lt;component&amp;gt;&amp;gt;&lt;br&gt;&lt;b&gt;ProfileSupportView&lt;/b&gt;" style="html=1;dropTarget=0;whiteSpace=wrap;" vertex="1" parent="1">
          <mxGeometry x="560" y="848" width="180" height="90" as="geometry" />
        </mxCell>
        <mxCell id="o_xj5rLthn3H0FLDRn8l-16" value="" style="shape=module;jettyWidth=8;jettyHeight=4;" vertex="1" parent="o_xj5rLthn3H0FLDRn8l-15">
          <mxGeometry x="1" width="20" height="20" relative="1" as="geometry">
            <mxPoint x="-27" y="7" as="offset" />
          </mxGeometry>
        </mxCell>
        <mxCell id="o_xj5rLthn3H0FLDRn8l-9" value="&amp;lt;&amp;lt;component&amp;gt;&amp;gt;&lt;br&gt;&lt;b&gt;main.js&lt;/b&gt;" style="html=1;dropTarget=0;whiteSpace=wrap;" vertex="1" parent="1">
          <mxGeometry x="546" y="1110" width="180" height="90" as="geometry" />
        </mxCell>
        <mxCell id="o_xj5rLthn3H0FLDRn8l-10" value="" style="shape=module;jettyWidth=8;jettyHeight=4;" vertex="1" parent="o_xj5rLthn3H0FLDRn8l-9">
          <mxGeometry x="1" width="20" height="20" relative="1" as="geometry">
            <mxPoint x="-27" y="7" as="offset" />
          </mxGeometry>
        </mxCell>
        <mxCell id="o_xj5rLthn3H0FLDRn8l-11" value="&amp;lt;&amp;lt;component&amp;gt;&amp;gt;&lt;br&gt;&lt;b&gt;user,js&lt;/b&gt;" style="html=1;dropTarget=0;whiteSpace=wrap;" vertex="1" parent="1">
          <mxGeometry x="1090" y="684" width="180" height="90" as="geometry" />
        </mxCell>
        <mxCell id="o_xj5rLthn3H0FLDRn8l-12" value="" style="shape=module;jettyWidth=8;jettyHeight=4;" vertex="1" parent="o_xj5rLthn3H0FLDRn8l-11">
          <mxGeometry x="1" width="20" height="20" relative="1" as="geometry">
            <mxPoint x="-27" y="7" as="offset" />
          </mxGeometry>
        </mxCell>
        <mxCell id="o_xj5rLthn3H0FLDRn8l-23" value="&amp;lt;&amp;lt;component&amp;gt;&amp;gt;&lt;br&gt;&lt;b&gt;main urls.py&lt;/b&gt;" style="html=1;dropTarget=0;whiteSpace=wrap;" vertex="1" parent="1">
          <mxGeometry x="1135" y="870" width="180" height="90" as="geometry" />
        </mxCell>
        <mxCell id="o_xj5rLthn3H0FLDRn8l-24" value="" style="shape=module;jettyWidth=8;jettyHeight=4;" vertex="1" parent="o_xj5rLthn3H0FLDRn8l-23">
          <mxGeometry x="1" width="20" height="20" relative="1" as="geometry">
            <mxPoint x="-27" y="7" as="offset" />
          </mxGeometry>
        </mxCell>
        <mxCell id="o_xj5rLthn3H0FLDRn8l-25" value="&amp;lt;&amp;lt;component&amp;gt;&amp;gt;&lt;br&gt;&lt;b&gt;urls.py&lt;/b&gt;" style="html=1;dropTarget=0;whiteSpace=wrap;spacingBottom=0;" vertex="1" parent="1">
          <mxGeometry x="1550" y="540" width="180" height="90" as="geometry" />
        </mxCell>
        <mxCell id="o_xj5rLthn3H0FLDRn8l-26" value="" style="shape=module;jettyWidth=8;jettyHeight=4;" vertex="1" parent="o_xj5rLthn3H0FLDRn8l-25">
          <mxGeometry x="1" width="20" height="20" relative="1" as="geometry">
            <mxPoint x="-27" y="7" as="offset" />
          </mxGeometry>
        </mxCell>
        <mxCell id="o_xj5rLthn3H0FLDRn8l-27" value="&amp;lt;&amp;lt;component&amp;gt;&amp;gt;&lt;br&gt;&lt;b&gt;forms.py&lt;/b&gt;" style="html=1;dropTarget=0;whiteSpace=wrap;" vertex="1" parent="1">
          <mxGeometry x="1760" y="840" width="180" height="90" as="geometry" />
        </mxCell>
        <mxCell id="o_xj5rLthn3H0FLDRn8l-28" value="" style="shape=module;jettyWidth=8;jettyHeight=4;" vertex="1" parent="o_xj5rLthn3H0FLDRn8l-27">
          <mxGeometry x="1" width="20" height="20" relative="1" as="geometry">
            <mxPoint x="-27" y="7" as="offset" />
          </mxGeometry>
        </mxCell>
        <mxCell id="o_xj5rLthn3H0FLDRn8l-29" value="&amp;lt;&amp;lt;component&amp;gt;&amp;gt;&lt;br&gt;&lt;b&gt;models.py&lt;/b&gt;" style="html=1;dropTarget=0;whiteSpace=wrap;" vertex="1" parent="1">
          <mxGeometry x="1570" y="885" width="180" height="90" as="geometry" />
        </mxCell>
        <mxCell id="o_xj5rLthn3H0FLDRn8l-30" value="" style="shape=module;jettyWidth=8;jettyHeight=4;" vertex="1" parent="o_xj5rLthn3H0FLDRn8l-29">
          <mxGeometry x="1" width="20" height="20" relative="1" as="geometry">
            <mxPoint x="-27" y="7" as="offset" />
          </mxGeometry>
        </mxCell>
        <mxCell id="o_xj5rLthn3H0FLDRn8l-31" value="&amp;lt;&amp;lt;component&amp;gt;&amp;gt;&lt;br&gt;&lt;b&gt;serializers.py&lt;/b&gt;" style="html=1;dropTarget=0;whiteSpace=wrap;" vertex="1" parent="1">
          <mxGeometry x="1360" y="885" width="180" height="90" as="geometry" />
        </mxCell>
        <mxCell id="o_xj5rLthn3H0FLDRn8l-32" value="" style="shape=module;jettyWidth=8;jettyHeight=4;" vertex="1" parent="o_xj5rLthn3H0FLDRn8l-31">
          <mxGeometry x="1" width="20" height="20" relative="1" as="geometry">
            <mxPoint x="-27" y="7" as="offset" />
          </mxGeometry>
        </mxCell>
        <mxCell id="o_xj5rLthn3H0FLDRn8l-33" value="&amp;lt;&amp;lt;component&amp;gt;&amp;gt;&lt;br&gt;&lt;b&gt;api.py&lt;/b&gt;" style="html=1;dropTarget=0;whiteSpace=wrap;" vertex="1" parent="1">
          <mxGeometry x="1654" y="710" width="180" height="90" as="geometry" />
        </mxCell>
        <mxCell id="o_xj5rLthn3H0FLDRn8l-34" value="" style="shape=module;jettyWidth=8;jettyHeight=4;" vertex="1" parent="o_xj5rLthn3H0FLDRn8l-33">
          <mxGeometry x="1" width="20" height="20" relative="1" as="geometry">
            <mxPoint x="-27" y="7" as="offset" />
          </mxGeometry>
        </mxCell>
        <mxCell id="o_xj5rLthn3H0FLDRn8l-35" value="&amp;lt;&amp;lt;component&amp;gt;&amp;gt;&lt;br&gt;&lt;b&gt;views.py&lt;/b&gt;" style="html=1;dropTarget=0;whiteSpace=wrap;" vertex="1" parent="1">
          <mxGeometry x="1440" y="710" width="180" height="90" as="geometry" />
        </mxCell>
        <mxCell id="o_xj5rLthn3H0FLDRn8l-36" value="" style="shape=module;jettyWidth=8;jettyHeight=4;" vertex="1" parent="o_xj5rLthn3H0FLDRn8l-35">
          <mxGeometry x="1" width="20" height="20" relative="1" as="geometry">
            <mxPoint x="-27" y="7" as="offset" />
          </mxGeometry>
        </mxCell>
        <mxCell id="o_xj5rLthn3H0FLDRn8l-38" value="" style="rounded=0;orthogonalLoop=1;jettySize=auto;html=1;endArrow=halfCircle;endFill=0;endSize=6;strokeWidth=1;sketch=0;fontSize=12;curved=1;" edge="1" parent="1">
          <mxGeometry relative="1" as="geometry">
            <mxPoint x="400" y="1169" as="sourcePoint" />
            <mxPoint x="380" y="1169" as="targetPoint" />
          </mxGeometry>
        </mxCell>
        <mxCell id="o_xj5rLthn3H0FLDRn8l-39" value="" style="ellipse;whiteSpace=wrap;html=1;align=center;aspect=fixed;fillColor=none;strokeColor=none;resizable=0;perimeter=centerPerimeter;rotatable=0;allowArrows=0;points=[];outlineConnect=1;" vertex="1" parent="1">
          <mxGeometry x="850" y="850" width="10" height="10" as="geometry" />
        </mxCell>
        <mxCell id="o_xj5rLthn3H0FLDRn8l-43" value="" style="rounded=0;whiteSpace=wrap;html=1;" vertex="1" parent="1">
          <mxGeometry x="400" y="1164" width="10" height="10" as="geometry" />
        </mxCell>
        <mxCell id="o_xj5rLthn3H0FLDRn8l-44" value="Libs nodejs" style="text;html=1;align=center;verticalAlign=middle;whiteSpace=wrap;rounded=0;" vertex="1" parent="1">
          <mxGeometry x="350" y="1182.5" width="60" height="30" as="geometry" />
        </mxCell>
        <mxCell id="o_xj5rLthn3H0FLDRn8l-45" value="" style="shape=providedRequiredInterface;html=1;verticalLabelPosition=bottom;sketch=0;" vertex="1" parent="1">
          <mxGeometry x="486" y="1159" width="20" height="20" as="geometry" />
        </mxCell>
        <mxCell id="o_xj5rLthn3H0FLDRn8l-46" style="edgeStyle=orthogonalEdgeStyle;rounded=0;orthogonalLoop=1;jettySize=auto;html=1;exitX=1;exitY=0.5;exitDx=0;exitDy=0;exitPerimeter=0;entryX=0.001;entryY=0.65;entryDx=0;entryDy=0;entryPerimeter=0;endArrow=none;endFill=0;" edge="1" parent="1" source="o_xj5rLthn3H0FLDRn8l-45" target="o_xj5rLthn3H0FLDRn8l-9">
          <mxGeometry relative="1" as="geometry" />
        </mxCell>
        <mxCell id="o_xj5rLthn3H0FLDRn8l-47" style="edgeStyle=orthogonalEdgeStyle;rounded=0;orthogonalLoop=1;jettySize=auto;html=1;exitX=1;exitY=0.5;exitDx=0;exitDy=0;entryX=0;entryY=0.5;entryDx=0;entryDy=0;entryPerimeter=0;endArrow=none;endFill=0;" edge="1" parent="1" source="o_xj5rLthn3H0FLDRn8l-43" target="o_xj5rLthn3H0FLDRn8l-45">
          <mxGeometry relative="1" as="geometry" />
        </mxCell>
        <mxCell id="o_xj5rLthn3H0FLDRn8l-48" value="Libs nodejs" style="text;html=1;align=center;verticalAlign=middle;whiteSpace=wrap;rounded=0;" vertex="1" parent="1">
          <mxGeometry x="466" y="1179" width="60" height="30" as="geometry" />
        </mxCell>
        <mxCell id="o_xj5rLthn3H0FLDRn8l-49" value="" style="rounded=0;orthogonalLoop=1;jettySize=auto;html=1;endArrow=halfCircle;endFill=0;endSize=6;strokeWidth=1;sketch=0;entryX=0.544;entryY=-0.231;entryDx=0;entryDy=0;entryPerimeter=0;" edge="1" target="o_xj5rLthn3H0FLDRn8l-51" parent="1">
          <mxGeometry relative="1" as="geometry">
            <mxPoint x="646" y="1020" as="sourcePoint" />
            <mxPoint x="645.95" y="1032.5" as="targetPoint" />
          </mxGeometry>
        </mxCell>
        <mxCell id="o_xj5rLthn3H0FLDRn8l-50" value="" style="rounded=0;orthogonalLoop=1;jettySize=auto;html=1;endArrow=oval;endFill=0;sketch=0;sourcePerimeterSpacing=0;targetPerimeterSpacing=0;endSize=10;exitX=0.553;exitY=0;exitDx=0;exitDy=0;exitPerimeter=0;" edge="1" target="o_xj5rLthn3H0FLDRn8l-51" parent="1" source="o_xj5rLthn3H0FLDRn8l-9">
          <mxGeometry relative="1" as="geometry">
            <mxPoint x="626" y="1035" as="sourcePoint" />
          </mxGeometry>
        </mxCell>
        <mxCell id="o_xj5rLthn3H0FLDRn8l-51" value="" style="ellipse;whiteSpace=wrap;html=1;align=center;aspect=fixed;fillColor=none;strokeColor=none;resizable=0;perimeter=centerPerimeter;rotatable=0;allowArrows=0;points=[];outlineConnect=1;" vertex="1" parent="1">
          <mxGeometry x="641" y="1060" width="10" height="10" as="geometry" />
        </mxCell>
        <mxCell id="o_xj5rLthn3H0FLDRn8l-53" value="ICreateApp" style="text;align=center;fontStyle=1;verticalAlign=middle;spacingLeft=3;spacingRight=3;strokeColor=none;rotatable=0;points=[[0,0.5],[1,0.5]];portConstraint=eastwest;html=1;" vertex="1" parent="1">
          <mxGeometry x="661" y="1063" width="50" height="16" as="geometry" />
        </mxCell>
        <mxCell id="o_xj5rLthn3H0FLDRn8l-56" value="" style="ellipse;whiteSpace=wrap;html=1;align=center;aspect=fixed;fillColor=none;strokeColor=none;resizable=0;perimeter=centerPerimeter;rotatable=0;allowArrows=0;points=[];outlineConnect=1;" vertex="1" parent="1">
          <mxGeometry x="1505" y="580" width="10" height="10" as="geometry" />
        </mxCell>
        <mxCell id="o_xj5rLthn3H0FLDRn8l-57" value="Restapi" style="text;align=center;fontStyle=1;verticalAlign=middle;spacingLeft=3;spacingRight=3;strokeColor=none;rotatable=0;points=[[0,0.5],[1,0.5]];portConstraint=eastwest;html=1;" vertex="1" parent="1">
          <mxGeometry x="1065" y="934" width="70" height="26" as="geometry" />
        </mxCell>
        <mxCell id="o_xj5rLthn3H0FLDRn8l-73" value="" style="rounded=0;orthogonalLoop=1;jettySize=auto;html=1;endArrow=oval;endFill=0;sketch=0;sourcePerimeterSpacing=0;targetPerimeterSpacing=0;endSize=10;exitX=0.5;exitY=0;exitDx=0;exitDy=0;" edge="1" target="o_xj5rLthn3H0FLDRn8l-74" parent="1" source="o_xj5rLthn3H0FLDRn8l-35">
          <mxGeometry relative="1" as="geometry">
            <mxPoint x="1515" y="695" as="sourcePoint" />
          </mxGeometry>
        </mxCell>
        <mxCell id="o_xj5rLthn3H0FLDRn8l-74" value="" style="ellipse;whiteSpace=wrap;html=1;align=center;aspect=fixed;fillColor=none;strokeColor=none;resizable=0;perimeter=centerPerimeter;rotatable=0;allowArrows=0;points=[];outlineConnect=1;" vertex="1" parent="1">
          <mxGeometry x="1525" y="690" width="10" height="10" as="geometry" />
        </mxCell>
        <mxCell id="o_xj5rLthn3H0FLDRn8l-75" value="" style="shape=requiredInterface;html=1;verticalLabelPosition=bottom;sketch=0;rotation=-90;" vertex="1" parent="1">
          <mxGeometry x="1525" y="680" width="10" height="20" as="geometry" />
        </mxCell>
        <mxCell id="o_xj5rLthn3H0FLDRn8l-79" value="" style="rounded=0;orthogonalLoop=1;jettySize=auto;html=1;endArrow=oval;endFill=0;sketch=0;sourcePerimeterSpacing=0;targetPerimeterSpacing=0;endSize=10;exitX=0.5;exitY=0;exitDx=0;exitDy=0;" edge="1" parent="1">
          <mxGeometry relative="1" as="geometry">
            <mxPoint x="1744" y="710" as="sourcePoint" />
            <mxPoint x="1744" y="695" as="targetPoint" />
          </mxGeometry>
        </mxCell>
        <mxCell id="o_xj5rLthn3H0FLDRn8l-80" value="" style="shape=requiredInterface;html=1;verticalLabelPosition=bottom;sketch=0;rotation=-90;" vertex="1" parent="1">
          <mxGeometry x="1739" y="680" width="10" height="20" as="geometry" />
        </mxCell>
        <mxCell id="o_xj5rLthn3H0FLDRn8l-81" value="" style="rounded=0;orthogonalLoop=1;jettySize=auto;html=1;endArrow=oval;endFill=0;sketch=0;sourcePerimeterSpacing=0;targetPerimeterSpacing=0;endSize=10;exitX=0.5;exitY=0;exitDx=0;exitDy=0;" edge="1" parent="1">
          <mxGeometry relative="1" as="geometry">
            <mxPoint x="1660" y="885" as="sourcePoint" />
            <mxPoint x="1660" y="870" as="targetPoint" />
          </mxGeometry>
        </mxCell>
        <mxCell id="o_xj5rLthn3H0FLDRn8l-82" value="" style="shape=requiredInterface;html=1;verticalLabelPosition=bottom;sketch=0;rotation=-90;" vertex="1" parent="1">
          <mxGeometry x="1655" y="855" width="10" height="20" as="geometry" />
        </mxCell>
        <mxCell id="o_xj5rLthn3H0FLDRn8l-83" value="" style="rounded=0;orthogonalLoop=1;jettySize=auto;html=1;endArrow=oval;endFill=0;sketch=0;sourcePerimeterSpacing=0;targetPerimeterSpacing=0;endSize=10;exitX=0.5;exitY=0;exitDx=0;exitDy=0;" edge="1" parent="1">
          <mxGeometry relative="1" as="geometry">
            <mxPoint x="1450" y="885" as="sourcePoint" />
            <mxPoint x="1450" y="870" as="targetPoint" />
          </mxGeometry>
        </mxCell>
        <mxCell id="o_xj5rLthn3H0FLDRn8l-84" value="" style="shape=requiredInterface;html=1;verticalLabelPosition=bottom;sketch=0;rotation=-90;" vertex="1" parent="1">
          <mxGeometry x="1445" y="855" width="10" height="20" as="geometry" />
        </mxCell>
        <mxCell id="o_xj5rLthn3H0FLDRn8l-85" value="" style="rounded=0;orthogonalLoop=1;jettySize=auto;html=1;endArrow=oval;endFill=0;sketch=0;sourcePerimeterSpacing=0;targetPerimeterSpacing=0;endSize=10;exitX=0.5;exitY=0;exitDx=0;exitDy=0;" edge="1" parent="1">
          <mxGeometry relative="1" as="geometry">
            <mxPoint x="1850" y="840" as="sourcePoint" />
            <mxPoint x="1850" y="825" as="targetPoint" />
          </mxGeometry>
        </mxCell>
        <mxCell id="o_xj5rLthn3H0FLDRn8l-86" value="" style="shape=requiredInterface;html=1;verticalLabelPosition=bottom;sketch=0;rotation=-90;" vertex="1" parent="1">
          <mxGeometry x="1845" y="810" width="10" height="20" as="geometry" />
        </mxCell>
        <mxCell id="o_xj5rLthn3H0FLDRn8l-88" value="" style="endArrow=none;html=1;rounded=0;exitX=1;exitY=0.5;exitDx=0;exitDy=0;exitPerimeter=0;entryX=0.25;entryY=1;entryDx=0;entryDy=0;" edge="1" parent="1" source="o_xj5rLthn3H0FLDRn8l-75" target="o_xj5rLthn3H0FLDRn8l-25">
          <mxGeometry width="50" height="50" relative="1" as="geometry">
            <mxPoint x="1620" y="680" as="sourcePoint" />
            <mxPoint x="1670" y="630" as="targetPoint" />
          </mxGeometry>
        </mxCell>
        <mxCell id="o_xj5rLthn3H0FLDRn8l-89" value="" style="endArrow=none;html=1;rounded=0;entryX=1;entryY=0.5;entryDx=0;entryDy=0;entryPerimeter=0;exitX=0.75;exitY=1;exitDx=0;exitDy=0;" edge="1" parent="1" source="o_xj5rLthn3H0FLDRn8l-25" target="o_xj5rLthn3H0FLDRn8l-80">
          <mxGeometry width="50" height="50" relative="1" as="geometry">
            <mxPoint x="1630" y="650" as="sourcePoint" />
            <mxPoint x="1680" y="600" as="targetPoint" />
          </mxGeometry>
        </mxCell>
        <mxCell id="o_xj5rLthn3H0FLDRn8l-90" value="" style="endArrow=none;html=1;rounded=0;entryX=1;entryY=0.5;entryDx=0;entryDy=0;entryPerimeter=0;exitX=0.25;exitY=1;exitDx=0;exitDy=0;" edge="1" parent="1" source="o_xj5rLthn3H0FLDRn8l-35" target="o_xj5rLthn3H0FLDRn8l-84">
          <mxGeometry width="50" height="50" relative="1" as="geometry">
            <mxPoint x="1480" y="840" as="sourcePoint" />
            <mxPoint x="1530" y="790" as="targetPoint" />
          </mxGeometry>
        </mxCell>
        <mxCell id="o_xj5rLthn3H0FLDRn8l-91" value="" style="endArrow=none;html=1;rounded=0;exitX=1;exitY=0.5;exitDx=0;exitDy=0;exitPerimeter=0;entryX=0.75;entryY=1;entryDx=0;entryDy=0;" edge="1" parent="1" source="o_xj5rLthn3H0FLDRn8l-82" target="o_xj5rLthn3H0FLDRn8l-35">
          <mxGeometry width="50" height="50" relative="1" as="geometry">
            <mxPoint x="1530" y="850" as="sourcePoint" />
            <mxPoint x="1580" y="800" as="targetPoint" />
          </mxGeometry>
        </mxCell>
        <mxCell id="o_xj5rLthn3H0FLDRn8l-92" value="" style="endArrow=none;html=1;rounded=0;entryX=0.75;entryY=1;entryDx=0;entryDy=0;exitX=1;exitY=0.5;exitDx=0;exitDy=0;exitPerimeter=0;" edge="1" parent="1" source="o_xj5rLthn3H0FLDRn8l-86" target="o_xj5rLthn3H0FLDRn8l-33">
          <mxGeometry width="50" height="50" relative="1" as="geometry">
            <mxPoint x="1700" y="940" as="sourcePoint" />
            <mxPoint x="1750" y="890" as="targetPoint" />
          </mxGeometry>
        </mxCell>
        <mxCell id="o_xj5rLthn3H0FLDRn8l-97" value="IViews" style="text;align=center;fontStyle=1;verticalAlign=middle;spacingLeft=3;spacingRight=3;strokeColor=none;rotatable=0;points=[[0,0.5],[1,0.5]];portConstraint=eastwest;html=1;" vertex="1" parent="1">
          <mxGeometry x="1540" y="684" width="50" height="26" as="geometry" />
        </mxCell>
        <mxCell id="o_xj5rLthn3H0FLDRn8l-98" value="IApi" style="text;align=center;fontStyle=1;verticalAlign=middle;spacingLeft=3;spacingRight=3;strokeColor=none;rotatable=0;points=[[0,0.5],[1,0.5]];portConstraint=eastwest;html=1;" vertex="1" parent="1">
          <mxGeometry x="1680" y="680" width="50" height="26" as="geometry" />
        </mxCell>
        <mxCell id="o_xj5rLthn3H0FLDRn8l-99" value="ISerializers" style="text;align=center;fontStyle=1;verticalAlign=middle;spacingLeft=3;spacingRight=3;strokeColor=none;rotatable=0;points=[[0,0.5],[1,0.5]];portConstraint=eastwest;html=1;" vertex="1" parent="1">
          <mxGeometry x="1455" y="855" width="85" height="26" as="geometry" />
        </mxCell>
        <mxCell id="o_xj5rLthn3H0FLDRn8l-100" value="IModels" style="text;align=center;fontStyle=1;verticalAlign=middle;spacingLeft=3;spacingRight=3;strokeColor=none;rotatable=0;points=[[0,0.5],[1,0.5]];portConstraint=eastwest;html=1;" vertex="1" parent="1">
          <mxGeometry x="1670" y="855" width="50" height="26" as="geometry" />
        </mxCell>
        <mxCell id="o_xj5rLthn3H0FLDRn8l-102" value="" style="endArrow=none;html=1;rounded=0;entryX=0.857;entryY=0.854;entryDx=0;entryDy=0;entryPerimeter=0;exitX=-0.002;exitY=0.084;exitDx=0;exitDy=0;exitPerimeter=0;" edge="1" parent="1" source="o_xj5rLthn3H0FLDRn8l-27" target="o_xj5rLthn3H0FLDRn8l-82">
          <mxGeometry width="50" height="50" relative="1" as="geometry">
            <mxPoint x="1660" y="930" as="sourcePoint" />
            <mxPoint x="1710" y="880" as="targetPoint" />
          </mxGeometry>
        </mxCell>
        <mxCell id="o_xj5rLthn3H0FLDRn8l-103" value="IForms" style="text;align=center;fontStyle=1;verticalAlign=middle;spacingLeft=3;spacingRight=3;strokeColor=none;rotatable=0;points=[[0,0.5],[1,0.5]];portConstraint=eastwest;html=1;" vertex="1" parent="1">
          <mxGeometry x="1860" y="810" width="50" height="26" as="geometry" />
        </mxCell>
        <mxCell id="o_xj5rLthn3H0FLDRn8l-104" value="" style="rounded=0;orthogonalLoop=1;jettySize=auto;html=1;endArrow=oval;endFill=0;sketch=0;sourcePerimeterSpacing=0;targetPerimeterSpacing=0;endSize=10;exitX=0;exitY=0.5;exitDx=0;exitDy=0;" edge="1" parent="1" source="o_xj5rLthn3H0FLDRn8l-25">
          <mxGeometry relative="1" as="geometry">
            <mxPoint x="1550" y="590.0000000000001" as="sourcePoint" />
            <mxPoint x="1535" y="585" as="targetPoint" />
          </mxGeometry>
        </mxCell>
        <mxCell id="o_xj5rLthn3H0FLDRn8l-105" value="" style="shape=requiredInterface;html=1;verticalLabelPosition=bottom;sketch=0;rotation=-180;" vertex="1" parent="1">
          <mxGeometry x="1525" y="575" width="10" height="20" as="geometry" />
        </mxCell>
        <mxCell id="o_xj5rLthn3H0FLDRn8l-106" value="" style="endArrow=none;html=1;rounded=0;entryX=1;entryY=0.5;entryDx=0;entryDy=0;exitX=1;exitY=0.5;exitDx=0;exitDy=0;exitPerimeter=0;" edge="1" parent="1" source="o_xj5rLthn3H0FLDRn8l-114" target="o_xj5rLthn3H0FLDRn8l-7">
          <mxGeometry width="50" height="50" relative="1" as="geometry">
            <mxPoint x="1410" y="640" as="sourcePoint" />
            <mxPoint x="1460" y="590" as="targetPoint" />
          </mxGeometry>
        </mxCell>
        <mxCell id="o_xj5rLthn3H0FLDRn8l-107" value="" style="endArrow=none;html=1;rounded=0;exitX=1;exitY=0.5;exitDx=0;exitDy=0;entryX=1;entryY=0.5;entryDx=0;entryDy=0;entryPerimeter=0;" edge="1" parent="1" source="o_xj5rLthn3H0FLDRn8l-5" target="o_xj5rLthn3H0FLDRn8l-114">
          <mxGeometry width="50" height="50" relative="1" as="geometry">
            <mxPoint x="1110" y="580" as="sourcePoint" />
            <mxPoint x="1160" y="530" as="targetPoint" />
          </mxGeometry>
        </mxCell>
        <mxCell id="o_xj5rLthn3H0FLDRn8l-108" value="" style="rounded=0;orthogonalLoop=1;jettySize=auto;html=1;endArrow=halfCircle;endFill=0;endSize=6;strokeWidth=1;sketch=0;exitX=0.5;exitY=1;exitDx=0;exitDy=0;" edge="1" target="o_xj5rLthn3H0FLDRn8l-110" parent="1" source="o_xj5rLthn3H0FLDRn8l-13">
          <mxGeometry relative="1" as="geometry">
            <mxPoint x="890" y="885" as="sourcePoint" />
          </mxGeometry>
        </mxCell>
        <mxCell id="o_xj5rLthn3H0FLDRn8l-109" value="" style="rounded=0;orthogonalLoop=1;jettySize=auto;html=1;endArrow=oval;endFill=0;sketch=0;sourcePerimeterSpacing=0;targetPerimeterSpacing=0;endSize=10;exitX=0.5;exitY=0;exitDx=0;exitDy=0;" edge="1" target="o_xj5rLthn3H0FLDRn8l-110" parent="1" source="o_xj5rLthn3H0FLDRn8l-15">
          <mxGeometry relative="1" as="geometry">
            <mxPoint x="850" y="823" as="sourcePoint" />
          </mxGeometry>
        </mxCell>
        <mxCell id="o_xj5rLthn3H0FLDRn8l-110" value="" style="ellipse;whiteSpace=wrap;html=1;align=center;aspect=fixed;fillColor=none;strokeColor=none;resizable=0;perimeter=centerPerimeter;rotatable=0;allowArrows=0;points=[];outlineConnect=1;" vertex="1" parent="1">
          <mxGeometry x="645" y="818" width="10" height="10" as="geometry" />
        </mxCell>
        <mxCell id="o_xj5rLthn3H0FLDRn8l-111" value="I&lt;b style=&quot;text-wrap: wrap;&quot;&gt;ProfileSupports&lt;/b&gt;" style="text;align=center;fontStyle=1;verticalAlign=middle;spacingLeft=3;spacingRight=3;strokeColor=none;rotatable=0;points=[[0,0.5],[1,0.5]];portConstraint=eastwest;html=1;" vertex="1" parent="1">
          <mxGeometry x="656" y="810" width="104" height="26" as="geometry" />
        </mxCell>
        <mxCell id="o_xj5rLthn3H0FLDRn8l-112" value="" style="endArrow=none;html=1;rounded=0;exitX=1;exitY=0.5;exitDx=0;exitDy=0;entryX=1;entryY=0.5;entryDx=0;entryDy=0;entryPerimeter=0;" edge="1" parent="1" source="o_xj5rLthn3H0FLDRn8l-15" target="o_xj5rLthn3H0FLDRn8l-114">
          <mxGeometry width="50" height="50" relative="1" as="geometry">
            <mxPoint x="870" y="640" as="sourcePoint" />
            <mxPoint x="920" y="590" as="targetPoint" />
          </mxGeometry>
        </mxCell>
        <mxCell id="o_xj5rLthn3H0FLDRn8l-113" value="" style="rounded=0;orthogonalLoop=1;jettySize=auto;html=1;endArrow=oval;endFill=0;sketch=0;sourcePerimeterSpacing=0;targetPerimeterSpacing=0;endSize=10;exitX=0;exitY=0.5;exitDx=0;exitDy=0;" edge="1" parent="1">
          <mxGeometry relative="1" as="geometry">
            <mxPoint x="1135" y="920" as="sourcePoint" />
            <mxPoint x="1120" y="920" as="targetPoint" />
          </mxGeometry>
        </mxCell>
        <mxCell id="o_xj5rLthn3H0FLDRn8l-114" value="" style="shape=requiredInterface;html=1;verticalLabelPosition=bottom;sketch=0;rotation=-180;" vertex="1" parent="1">
          <mxGeometry x="1110" y="910" width="10" height="20" as="geometry" />
        </mxCell>
        <mxCell id="o_xj5rLthn3H0FLDRn8l-115" value="IurlsProfiles" style="text;align=center;fontStyle=1;verticalAlign=middle;spacingLeft=3;spacingRight=3;strokeColor=none;rotatable=0;points=[[0,0.5],[1,0.5]];portConstraint=eastwest;html=1;" vertex="1" parent="1">
          <mxGeometry x="1460" y="549" width="80" height="26" as="geometry" />
        </mxCell>
        <mxCell id="o_xj5rLthn3H0FLDRn8l-116" value="" style="endArrow=none;html=1;rounded=0;entryX=1;entryY=0.5;entryDx=0;entryDy=0;entryPerimeter=0;exitX=1;exitY=0.5;exitDx=0;exitDy=0;" edge="1" parent="1" source="o_xj5rLthn3H0FLDRn8l-23" target="o_xj5rLthn3H0FLDRn8l-105">
          <mxGeometry width="50" height="50" relative="1" as="geometry">
            <mxPoint x="1090" y="690" as="sourcePoint" />
            <mxPoint x="1140" y="640" as="targetPoint" />
          </mxGeometry>
        </mxCell>
        <mxCell id="o_xj5rLthn3H0FLDRn8l-117" value="" style="rounded=0;orthogonalLoop=1;jettySize=auto;html=1;endArrow=oval;endFill=0;sketch=0;sourcePerimeterSpacing=0;targetPerimeterSpacing=0;endSize=10;exitX=0;exitY=0.5;exitDx=0;exitDy=0;" edge="1" parent="1">
          <mxGeometry relative="1" as="geometry">
            <mxPoint x="1090" y="729" as="sourcePoint" />
            <mxPoint x="1075" y="729" as="targetPoint" />
          </mxGeometry>
        </mxCell>
        <mxCell id="o_xj5rLthn3H0FLDRn8l-118" value="" style="shape=requiredInterface;html=1;verticalLabelPosition=bottom;sketch=0;rotation=-180;" vertex="1" parent="1">
          <mxGeometry x="1065" y="719" width="10" height="20" as="geometry" />
        </mxCell>
        <mxCell id="o_xj5rLthn3H0FLDRn8l-120" value="useUserStore" style="text;align=center;fontStyle=1;verticalAlign=middle;spacingLeft=3;spacingRight=3;strokeColor=none;rotatable=0;points=[[0,0.5],[1,0.5]];portConstraint=eastwest;html=1;" vertex="1" parent="1">
          <mxGeometry x="1000" y="690" width="90" height="26" as="geometry" />
        </mxCell>
        <mxCell id="o_xj5rLthn3H0FLDRn8l-122" value="" style="endArrow=none;html=1;rounded=0;entryX=1;entryY=0.5;entryDx=0;entryDy=0;exitX=1;exitY=0.5;exitDx=0;exitDy=0;exitPerimeter=0;" edge="1" parent="1" source="o_xj5rLthn3H0FLDRn8l-118" target="o_xj5rLthn3H0FLDRn8l-7">
          <mxGeometry width="50" height="50" relative="1" as="geometry">
            <mxPoint x="920" y="740" as="sourcePoint" />
            <mxPoint x="970" y="690" as="targetPoint" />
          </mxGeometry>
        </mxCell>
        <mxCell id="o_xj5rLthn3H0FLDRn8l-123" value="" style="endArrow=none;html=1;rounded=0;entryX=1;entryY=0.5;entryDx=0;entryDy=0;exitX=1;exitY=0.5;exitDx=0;exitDy=0;exitPerimeter=0;" edge="1" parent="1" source="o_xj5rLthn3H0FLDRn8l-118" target="o_xj5rLthn3H0FLDRn8l-5">
          <mxGeometry width="50" height="50" relative="1" as="geometry">
            <mxPoint x="920" y="740" as="sourcePoint" />
            <mxPoint x="970" y="690" as="targetPoint" />
          </mxGeometry>
        </mxCell>
        <mxCell id="o_xj5rLthn3H0FLDRn8l-124" value="" style="endArrow=none;html=1;rounded=0;exitX=1;exitY=0.5;exitDx=0;exitDy=0;entryX=1;entryY=0.5;entryDx=0;entryDy=0;entryPerimeter=0;" edge="1" parent="1" source="o_xj5rLthn3H0FLDRn8l-13" target="o_xj5rLthn3H0FLDRn8l-118">
          <mxGeometry width="50" height="50" relative="1" as="geometry">
            <mxPoint x="920" y="740" as="sourcePoint" />
            <mxPoint x="970" y="690" as="targetPoint" />
          </mxGeometry>
        </mxCell>
        <mxCell id="o_xj5rLthn3H0FLDRn8l-125" value="" style="endArrow=none;html=1;rounded=0;exitX=1;exitY=0.5;exitDx=0;exitDy=0;entryX=1;entryY=0.5;entryDx=0;entryDy=0;entryPerimeter=0;" edge="1" parent="1" source="o_xj5rLthn3H0FLDRn8l-15" target="o_xj5rLthn3H0FLDRn8l-118">
          <mxGeometry width="50" height="50" relative="1" as="geometry">
            <mxPoint x="920" y="740" as="sourcePoint" />
            <mxPoint x="970" y="690" as="targetPoint" />
          </mxGeometry>
        </mxCell>
        <mxCell id="o_xj5rLthn3H0FLDRn8l-128" value="" style="endArrow=none;html=1;rounded=0;entryX=0.25;entryY=1;entryDx=0;entryDy=0;exitX=0.843;exitY=0.856;exitDx=0;exitDy=0;exitPerimeter=0;" edge="1" parent="1" source="o_xj5rLthn3H0FLDRn8l-114" target="o_xj5rLthn3H0FLDRn8l-11">
          <mxGeometry width="50" height="50" relative="1" as="geometry">
            <mxPoint x="950" y="820" as="sourcePoint" />
            <mxPoint x="1000" y="770" as="targetPoint" />
          </mxGeometry>
        </mxCell>
        <mxCell id="o_xj5rLthn3H0FLDRn8l-129" value="" style="shape=providedRequiredInterface;html=1;verticalLabelPosition=bottom;sketch=0;rotation=-90;" vertex="1" parent="1">
          <mxGeometry x="1215" y="1026" width="20" height="20" as="geometry" />
        </mxCell>
        <mxCell id="o_xj5rLthn3H0FLDRn8l-130" value="" style="endArrow=none;html=1;rounded=0;entryX=1;entryY=0.5;entryDx=0;entryDy=0;entryPerimeter=0;exitX=0.5;exitY=1;exitDx=0;exitDy=0;" edge="1" parent="1" source="o_xj5rLthn3H0FLDRn8l-23" target="o_xj5rLthn3H0FLDRn8l-129">
          <mxGeometry width="50" height="50" relative="1" as="geometry">
            <mxPoint x="1180" y="1036" as="sourcePoint" />
            <mxPoint x="1210" y="1031" as="targetPoint" />
          </mxGeometry>
        </mxCell>
        <mxCell id="o_xj5rLthn3H0FLDRn8l-131" value="" style="rounded=0;whiteSpace=wrap;html=1;" vertex="1" parent="1">
          <mxGeometry x="1220" y="1236" width="10" height="10" as="geometry" />
        </mxCell>
        <mxCell id="o_xj5rLthn3H0FLDRn8l-132" value="" style="rounded=0;orthogonalLoop=1;jettySize=auto;html=1;endArrow=halfCircle;endFill=0;endSize=6;strokeWidth=1;sketch=0;fontSize=12;curved=1;exitX=0.5;exitY=1;exitDx=0;exitDy=0;" edge="1" parent="1" source="o_xj5rLthn3H0FLDRn8l-131">
          <mxGeometry relative="1" as="geometry">
            <mxPoint x="1229" y="1246" as="sourcePoint" />
            <mxPoint x="1225" y="1280" as="targetPoint" />
          </mxGeometry>
        </mxCell>
        <mxCell id="o_xj5rLthn3H0FLDRn8l-133" value="" style="ellipse;whiteSpace=wrap;html=1;align=center;aspect=fixed;fillColor=none;strokeColor=none;resizable=0;perimeter=centerPerimeter;rotatable=0;allowArrows=0;points=[];outlineConnect=1;" vertex="1" parent="1">
          <mxGeometry x="1450" y="1031" width="10" height="10" as="geometry" />
        </mxCell>
        <mxCell id="o_xj5rLthn3H0FLDRn8l-134" value="" style="endArrow=none;html=1;rounded=0;exitX=0;exitY=0.5;exitDx=0;exitDy=0;exitPerimeter=0;entryX=0.5;entryY=0;entryDx=0;entryDy=0;" edge="1" parent="1" source="o_xj5rLthn3H0FLDRn8l-129" target="o_xj5rLthn3H0FLDRn8l-131">
          <mxGeometry width="50" height="50" relative="1" as="geometry">
            <mxPoint x="1240" y="1041" as="sourcePoint" />
            <mxPoint x="1290" y="991" as="targetPoint" />
          </mxGeometry>
        </mxCell>
        <mxCell id="o_xj5rLthn3H0FLDRn8l-135" value="IurlsAll" style="text;align=center;fontStyle=1;verticalAlign=middle;spacingLeft=3;spacingRight=3;strokeColor=none;rotatable=0;points=[[0,0.5],[1,0.5]];portConstraint=eastwest;html=1;" vertex="1" parent="1">
          <mxGeometry x="1220" y="1031" width="80" height="26" as="geometry" />
        </mxCell>
        <mxCell id="o_xj5rLthn3H0FLDRn8l-136" value="IurlsAll" style="text;align=center;fontStyle=1;verticalAlign=middle;spacingLeft=3;spacingRight=3;strokeColor=none;rotatable=0;points=[[0,0.5],[1,0.5]];portConstraint=eastwest;html=1;" vertex="1" parent="1">
          <mxGeometry x="1215" y="1260" width="80" height="26" as="geometry" />
        </mxCell>
        <mxCell id="o_xj5rLthn3H0FLDRn8l-137" value="" style="shape=providedRequiredInterface;html=1;verticalLabelPosition=bottom;sketch=0;rotation=-90;" vertex="1" parent="1">
          <mxGeometry x="1652.5" y="1041" width="20" height="20" as="geometry" />
        </mxCell>
        <mxCell id="o_xj5rLthn3H0FLDRn8l-138" value="" style="endArrow=none;html=1;rounded=0;entryX=1;entryY=0.5;entryDx=0;entryDy=0;entryPerimeter=0;exitX=0.5;exitY=1;exitDx=0;exitDy=0;" edge="1" parent="1" target="o_xj5rLthn3H0FLDRn8l-137">
          <mxGeometry width="50" height="50" relative="1" as="geometry">
            <mxPoint x="1662.5" y="975" as="sourcePoint" />
            <mxPoint x="1647.5" y="1046" as="targetPoint" />
          </mxGeometry>
        </mxCell>
        <mxCell id="o_xj5rLthn3H0FLDRn8l-139" value="" style="rounded=0;whiteSpace=wrap;html=1;" vertex="1" parent="1">
          <mxGeometry x="1657.5" y="1236" width="10" height="10" as="geometry" />
        </mxCell>
        <mxCell id="o_xj5rLthn3H0FLDRn8l-140" value="" style="rounded=0;orthogonalLoop=1;jettySize=auto;html=1;endArrow=halfCircle;endFill=0;endSize=6;strokeWidth=1;sketch=0;fontSize=12;curved=1;exitX=0.5;exitY=1;exitDx=0;exitDy=0;" edge="1" parent="1" source="o_xj5rLthn3H0FLDRn8l-139">
          <mxGeometry relative="1" as="geometry">
            <mxPoint x="1662.45" y="1251" as="sourcePoint" />
            <mxPoint x="1662.45" y="1267" as="targetPoint" />
          </mxGeometry>
        </mxCell>
        <mxCell id="o_xj5rLthn3H0FLDRn8l-141" value="" style="endArrow=none;html=1;rounded=0;exitX=0;exitY=0.5;exitDx=0;exitDy=0;exitPerimeter=0;entryX=0.5;entryY=0;entryDx=0;entryDy=0;" edge="1" parent="1" source="o_xj5rLthn3H0FLDRn8l-137" target="o_xj5rLthn3H0FLDRn8l-139">
          <mxGeometry width="50" height="50" relative="1" as="geometry">
            <mxPoint x="1677.5" y="1056" as="sourcePoint" />
            <mxPoint x="1727.5" y="1006" as="targetPoint" />
          </mxGeometry>
        </mxCell>
        <mxCell id="o_xj5rLthn3H0FLDRn8l-142" value="IDataBase" style="text;align=center;fontStyle=1;verticalAlign=middle;spacingLeft=3;spacingRight=3;strokeColor=none;rotatable=0;points=[[0,0.5],[1,0.5]];portConstraint=eastwest;html=1;" vertex="1" parent="1">
          <mxGeometry x="1663.75" y="1046" width="82.5" height="26" as="geometry" />
        </mxCell>
        <mxCell id="o_xj5rLthn3H0FLDRn8l-144" value="IDataBase" style="text;align=center;fontStyle=1;verticalAlign=middle;spacingLeft=3;spacingRight=3;strokeColor=none;rotatable=0;points=[[0,0.5],[1,0.5]];portConstraint=eastwest;html=1;" vertex="1" parent="1">
          <mxGeometry x="1665" y="1250" width="82.5" height="26" as="geometry" />
        </mxCell>
      </root>
    </mxGraphModel>
  </diagram>
</mxfile>
